<svg width="17" height="19" viewBox="0 0 17 19" fill="none" xmlns="http://www.w3.org/2000/svg">
<path d="M13.9711 4.28859L13.9711 4.28859L13.9692 4.28641C13.5677 3.83279 12.9043 3.75812 12.4358 4.09539L12.4353 4.09572C11.9373 4.45316 11.7683 5.11666 12.0469 5.66837L12.0482 5.6711C12.1101 5.79596 12.2102 5.92301 12.3297 6.04248L12.3315 6.04426C13.768 7.49822 14.3448 9.27351 13.8344 11.3294L13.8343 11.3295C13.3469 13.2894 12.0919 14.5916 10.2447 15.1773L10.2441 15.1775C8.44349 15.7457 6.7475 15.3827 5.29409 14.1611C4.04128 13.1106 3.39967 11.6968 3.37762 10.0317C3.35863 8.70294 3.80445 7.52798 4.62356 6.5252C4.69482 6.43739 4.77449 6.36624 4.83187 6.31544C4.83689 6.31099 4.84175 6.30669 4.84646 6.30253C4.9028 6.25268 4.93786 6.22167 4.96819 6.1882L4.96817 6.18818L4.97117 6.18495C5.30094 5.82898 5.38927 5.42543 5.24532 4.95198C5.09967 4.48526 4.79153 4.22026 4.32775 4.12616C3.98915 4.05821 3.68292 4.14281 3.38112 4.38516L3.37991 4.38612C2.7777 4.8659 2.3551 5.51596 1.96112 6.25146C1.29911 7.48851 1.00066 8.824 1.04817 10.2448L1.04819 10.2453C1.10407 11.9779 1.65253 13.5167 2.6871 14.8675C3.66932 16.1469 4.89571 17.0439 6.37955 17.4968L6.37988 17.4969C8.91221 18.2721 11.2524 17.8673 13.3723 16.2076L13.3725 16.2075C14.7445 15.1347 15.6464 13.7092 16.0943 11.9676L16.0947 11.9658C16.263 11.3235 16.3362 10.6622 16.3392 9.98213C16.3077 7.81725 15.5665 5.97535 14.1078 4.44387L14.3975 4.168L14.1086 4.4447C14.0773 4.41197 14.026 4.35224 13.995 4.31625C13.9836 4.30291 13.9749 4.29283 13.9711 4.28859Z" fill="#FE724C" stroke="white" stroke-width="0.8"/>
<path d="M7.11157 7.65619C7.1145 8.49654 7.72628 9.19326 8.52248 9.27271C9.34796 9.35827 10.0856 8.80212 10.2495 7.96483C10.273 7.84565 10.2759 7.72342 10.2759 7.60119M7.11157 7.65619C7.10572 5.3949 7.10572 4.60026 7.11157 2.33897C7.11157 1.73698 7.3838 1.26944 7.87265 0.963859C8.38198 0.642999 8.92644 0.630776 9.44748 0.930245C9.98023 1.23583 10.2671 1.7217 10.27 2.36342M7.11157 7.65619L7.51157 7.65516C7.51157 7.65513 7.51157 7.6551 7.51157 7.65507C7.51396 8.30402 7.98345 8.81693 8.5622 8.87468L8.56372 8.87484C9.17587 8.93829 9.73137 8.52958 9.85699 7.88797L9.85704 7.8877C9.87234 7.80986 9.87586 7.72151 9.87588 7.60222M7.11157 7.65619L7.51157 7.6548L9.87588 7.60222M10.27 2.36342C10.2719 3.08119 10.2714 3.50082 10.2708 4.00291C10.2704 4.28744 10.27 4.59846 10.27 5.00522V5.00527C10.27 6.11449 10.27 6.49195 10.2759 7.60119M10.27 2.36342L9.87003 2.36524C9.87003 2.36512 9.87003 2.36499 9.87003 2.36487M10.27 2.36342L9.87003 2.36446C9.87003 2.3646 9.87003 2.36473 9.87003 2.36487M10.2759 7.60119L9.87588 7.6033C9.87588 7.60294 9.87588 7.60258 9.87588 7.60222M10.2759 7.60119H9.87588C9.87588 7.60153 9.87588 7.60188 9.87588 7.60222M9.87588 7.60222C9.87002 6.49278 9.87002 6.11442 9.87002 5.00522C9.87002 4.59742 9.87041 4.28611 9.87076 4.00153C9.87138 3.50012 9.87189 3.08173 9.87003 2.36487M9.87588 7.60222L7.51157 2.34001L7.51157 2.33897C7.51157 1.87793 7.71016 1.53715 8.08467 1.30304L8.08585 1.3023L8.08585 1.3023C8.47056 1.05995 8.8563 1.05183 9.24816 1.27704L9.24846 1.27722C9.6557 1.51081 9.86764 1.86408 9.87003 2.36487" fill="#FE724C" stroke="white" stroke-width="0.8"/>
</svg>
